<svg width="14" height="28" viewBox="0 0 14 28" fill="none" xmlns="http://www.w3.org/2000/svg">
<path id="facebook" d="M0.447013 14.9128H3.485V27.5484C3.485 27.7979 3.68509 28 3.93202 28H9.08304C9.32997 28 9.53005 27.7979 9.53005 27.5484V14.9723H13.0225C13.2496 14.9723 13.4406 14.8002 13.4665 14.5723L13.997 9.92049C14.0115 9.7925 13.9714 9.66434 13.8866 9.56832C13.8018 9.47222 13.6804 9.41721 13.553 9.41721H9.53023V6.50124C9.53023 5.62222 9.9987 5.17648 10.9228 5.17648C11.0545 5.17648 13.553 5.17648 13.553 5.17648C13.7999 5.17648 14 4.97425 14 4.72486V0.454955C14 0.205484 13.7999 0.00334194 13.553 0.00334194H9.92816C9.90259 0.00207742 9.84582 0 9.76214 0C9.13319 0 6.94703 0.124735 5.22013 1.72977C3.30673 3.5084 3.57271 5.63803 3.63627 6.00726V9.41712H0.447013C0.200083 9.41712 0 9.61926 0 9.86874V14.4611C0 14.7106 0.200083 14.9128 0.447013 14.9128Z" fill="#01070F"/>
</svg>
