<svg width="137" height="102" viewBox="0 0 137 102" fill="none" xmlns="http://www.w3.org/2000/svg">
<g id="Logo">
<path id="Vector" fill-rule="evenodd" clip-rule="evenodd" d="M32.1803 20.532L52.455 0.259127H64.3301V65.8031L51.4031 52.6638V30.2417V19.587L41.3115 29.6777L46.9823 35.348L47.0738 36.4455V53.7308L32.165 38.8234L17.2868 53.7003V35.4242L23.0186 29.6929L12.9575 19.6327V52.6791L0.0609589 65.8031V0.259127H12.988L32.1803 20.532ZM76.2053 0L136.77 0.121942L127.639 12.8649H89.117L88.5987 12.3619L76.2053 0ZM85.6414 16.3403V49.0056L72.7144 61.901V3.44487L85.1383 15.8373L85.6414 16.3403ZM89.117 52.4657H127.624L136.724 65.3458H76.2053L89.1018 52.4657H89.117ZM12.3325 1.75292H1.55488V62.1296L2.75917 60.8949V2.9571H13.4605L12.3325 1.75292ZM25.168 29.6625L18.8112 36.0187V50.0421L20.0155 48.8379V37.2229L26.3723 30.8666L25.168 29.6625ZM52.9123 18.3523V28.7327V52.0389L54.1166 53.2431V29.9368V17.1481L52.9123 18.3523ZM62.8362 2.94186V1.73768H53.0952L32.2108 22.6203L33.3846 23.855L54.2842 2.9571H62.8209L62.8362 2.94186ZM79.8639 1.49379L81.0681 2.69797L132.99 2.80467L133.843 1.61574L79.8486 1.50904L79.8639 1.49379ZM75.4431 8.26159L74.2388 7.05741V58.2579L75.4431 57.0537V8.27683V8.26159ZM89.742 53.9442L79.8486 63.8063H82.2572L90.9463 55.1484H127.7L126.846 53.9442H89.7268H89.742Z" fill="#01070F"/>
<path id="Vector_2" d="M25.8388 71.4581H21.5247L17.8356 80.4208L13.9636 73.0281V81.122L18.2624 89.3684L25.8235 71.4581H25.8388ZM123.172 83.4999L121.023 86.3655C122.532 87.5545 124.743 88.7129 127.929 88.9873V85.5424C126.13 85.1918 124.224 84.3077 123.172 83.4999ZM130.047 89.0482C134.179 88.9111 136.953 87.1277 136.953 83.6828C136.953 79.5215 133.051 78.8051 130.047 78.2716V81.9146C131.648 82.2347 132.898 82.6768 132.898 83.759C132.898 84.6431 131.892 85.4967 130.047 85.6491V89.0178V89.0482ZM127.929 77.8753C126.572 77.6009 125.337 77.2046 125.337 76.2443C125.337 75.1011 126.77 74.6743 127.929 74.5676V71.1685C124.788 71.3361 121.282 72.586 121.282 76.3815C121.282 80.1769 125.383 81.1372 127.929 81.564V77.8753ZM130.047 74.6895C131.374 74.9487 132.7 75.5431 133.874 76.3205L136.13 73.4854C134.362 72.2812 132.593 71.4428 130.047 71.2142V74.6895ZM102.654 71.4123H101.19V74.6591H102.806C104.986 74.6591 106.145 76.1528 106.145 77.6162C106.145 79.0795 105.245 80.4361 103.218 80.4361H101.19V83.6828H102.623C107.654 83.6828 110.215 81.0305 110.215 77.6162C110.215 74.2018 107.364 71.4123 102.654 71.4123ZM99.0867 71.4123H95.047V88.7129H99.0867V71.4123ZM63.0801 88.7129H67.5466L68.9796 86.0607H72.3028V82.8597H70.9766L72.3028 80.3446V72.6927L63.0649 88.6977L63.0801 88.7129ZM74.4217 86.0607H77.7297L79.2236 88.7129H83.6597L74.4217 72.708V80.3294L75.7785 82.8749H74.4217V86.0759V86.0607ZM41.5402 88.7129V71.4123H37.5158V88.7129H41.5402ZM43.6591 83.317H44.3146C45.8543 85.2071 47.272 86.9447 48.8116 88.7129H53.6593C52.1501 86.8685 50.4275 84.7803 48.8116 82.9207C51.144 81.9908 52.6379 79.9331 52.6379 77.4332C52.6379 73.8817 49.894 71.4276 45.8695 71.4276H43.6744V74.6743H45.8695C48.2628 74.6743 48.6135 76.5492 48.6135 77.4485C48.6135 79.2471 47.1195 80.1007 45.8695 80.1007H43.6744V83.3474L43.6591 83.317ZM11.8599 72.9976L7.98791 80.4056L4.37506 71.4428H0L7.48486 89.3531L11.8447 81.0915V73.0128L11.8599 72.9976ZM10.7014 96.2428C10.7014 96.2428 10.6404 96.1666 10.6099 96.1209V95.0539C11.0367 95.1606 11.3873 95.4045 11.6465 95.7703L10.7014 96.2276V96.2428ZM10.0001 95.8313C10.0001 95.8313 9.9544 95.8313 9.93916 95.8313C9.7105 95.8313 9.51232 95.9075 9.32939 96.0447C9.14647 96.1971 9.055 96.38 9.055 96.6087C9.055 96.9593 9.17695 97.1879 9.4361 97.3098C9.55806 97.3708 9.75623 97.4013 10.0154 97.4165V98.2549H9.9544C9.61903 98.2549 9.34464 98.3311 9.11598 98.514C8.85683 98.6969 8.71963 98.9561 8.71963 99.2762C8.71963 99.5963 8.84158 99.8401 9.08549 100.023C9.29891 100.191 9.58854 100.267 9.90867 100.267C9.93916 100.267 9.96965 100.267 10.0154 100.267V101.166C10.0154 101.166 9.93916 101.166 9.89343 101.166C9.28366 101.166 8.76536 101.014 8.35377 100.709C7.8812 100.358 7.65254 99.9011 7.65254 99.3067C7.65254 98.9408 7.75925 98.6207 7.95742 98.3616C8.1556 98.1025 8.42999 97.9195 8.78061 97.8129C8.2928 97.5842 8.04889 97.1879 8.04889 96.6239C8.04889 96.1209 8.24706 95.7093 8.65865 95.4045C9.02451 95.1301 9.48184 94.9929 10.0001 94.9929V95.8313ZM10.6099 100.099C11.0977 99.8097 11.3416 99.1695 11.3416 98.1634C11.3416 97.95 11.3416 97.7214 11.3111 97.4775H12.9727V98.1787H12.363C12.363 99.0628 12.18 99.7639 11.8142 100.282C11.5245 100.694 11.113 100.968 10.6099 101.09V100.099ZM37.6377 99.1847L36.9212 100.206C37.4243 100.633 38.1712 101.06 39.2536 101.151V99.9164C38.6438 99.7944 38.0036 99.4743 37.6377 99.1695V99.1847ZM39.8633 101.182C41.2506 101.136 42.1957 100.511 42.1957 99.2609C42.1957 97.7519 40.8695 97.508 39.8633 97.3098V98.6207C40.4121 98.7274 40.8542 98.8951 40.8542 99.2914C40.8542 99.6115 40.5036 99.9316 39.8633 99.9773V101.182ZM39.2536 97.1879C38.7963 97.0812 38.3542 96.9593 38.3542 96.5934C38.3542 96.1666 38.8725 96.0142 39.2536 95.9837V94.7643C38.2017 94.81 37.0127 95.2521 37.0127 96.6392C37.0127 98.0263 38.4152 98.3464 39.2536 98.4988V97.1727V97.1879ZM39.8633 96.0294C40.3207 96.1209 40.7627 96.3343 41.1743 96.6239L41.9213 95.6027C41.3268 95.1606 40.7323 94.8558 39.8633 94.7948V96.0294ZM60.3667 101.06V94.8558H59.0252V101.06H60.3667ZM83.7816 97.6147H80.809V98.7884H82.3487C82.181 99.3829 81.5102 99.8554 80.809 99.9468V101.166C82.3639 101.06 83.6597 99.9621 83.7816 98.4683C83.7816 98.3463 83.7969 98.2244 83.7969 98.1177C83.7969 97.9805 83.7969 97.7824 83.7816 97.6147ZM80.1993 99.9468C79.2541 99.7792 78.5377 98.9256 78.5377 97.9805C78.5377 97.0355 79.2541 96.1971 80.1993 96.0142V94.7795C78.5224 94.9472 77.2114 96.3191 77.2114 97.9805C77.2114 99.642 78.5224 101.014 80.1993 101.182V99.9468ZM80.809 95.999C81.373 96.0904 81.8609 96.4562 82.1962 96.9135L83.3548 96.2428C82.7908 95.4045 81.8609 94.8405 80.809 94.7643V95.999ZM101.861 97.5385L103.035 98.5598V96.883L100.535 94.6728V101.075H101.861V97.5537V97.5385ZM103.645 99.0933L106.145 101.273V94.8862H104.803V98.4683L103.645 97.447V99.1085V99.0933ZM123.66 99.2L122.944 100.221C123.447 100.648 124.194 101.075 125.276 101.166V99.9316C124.666 99.8097 124.026 99.4896 123.66 99.1847V99.2ZM125.886 101.197C127.273 101.151 128.218 100.526 128.218 99.2762C128.218 97.7671 126.892 97.5232 125.886 97.3251V98.636C126.435 98.7427 126.877 98.9103 126.877 99.3067C126.877 99.6267 126.526 99.9468 125.886 99.9926V101.197ZM125.276 97.2031C124.819 97.0964 124.377 96.9745 124.377 96.6087C124.377 96.1819 124.895 96.0294 125.276 95.999V94.7795C124.224 94.8253 123.035 95.2673 123.035 96.6544C123.035 98.0415 124.438 98.3616 125.276 98.514V97.1879V97.2031ZM125.886 96.0447C126.343 96.1361 126.785 96.3495 127.197 96.6392L127.944 95.6179C127.349 95.1758 126.755 94.871 125.886 94.81V96.0447Z" fill="#01070F"/>
</g>
</svg>
